<svg id="Capa_1" data-name="Capa 1" xmlns="http://www.w3.org/2000/svg" viewBox="0 0 205.41 137.27"><defs><style>.cls-1{fill:#012e74;}.cls-2{fill:#00ae42;}.cls-3{fill:#ffcd00;}.cls-4{fill:#3cb4e5;}</style></defs><path class="cls-1" d="M34.5,128.41h1v1.36a3,3,0,0,1,2.59-1.5,3.3,3.3,0,0,1,3.23,3.5v0a3.31,3.31,0,0,1-3.23,3.52,3,3,0,0,1-2.59-1.44v3.39h-1Zm5.8,3.4v0a2.44,2.44,0,0,0-2.38-2.62,2.52,2.52,0,0,0-2.45,2.6v0a2.51,2.51,0,0,0,2.45,2.61,2.39,2.39,0,0,0,2.38-2.6"/><path class="cls-1" d="M43.08,132.61v-4.2h1v4a1.8,1.8,0,0,0,1.87,2,2,2,0,0,0,2-2.12v-3.87h1v6.76H48V134a2.6,2.6,0,0,1-2.32,1.32,2.47,2.47,0,0,1-2.59-2.71"/><path class="cls-1" d="M50.82,131.81v0a3.34,3.34,0,0,1,3.25-3.52c2,0,3.15,1.59,3.15,3.57,0,.13,0,.21,0,.33H51.84a2.36,2.36,0,0,0,2.38,2.28,2.83,2.83,0,0,0,2.14-.95l.62.56a3.48,3.48,0,0,1-2.78,1.27,3.37,3.37,0,0,1-3.38-3.52m5.38-.39a2.23,2.23,0,0,0-2.16-2.3,2.33,2.33,0,0,0-2.2,2.3Zm-1.32-5.92,1,.48-1.49,1.41h-.78Z"/><path class="cls-1" d="M58.42,134.31l.51-.72a3.93,3.93,0,0,0,2.34.86c.81,0,1.4-.41,1.4-1.07v0c0-.68-.8-1-1.69-1.19-1.06-.3-2.23-.67-2.23-1.91v0a2,2,0,0,1,2.3-1.93,4.59,4.59,0,0,1,2.43.74l-.46.76a3.74,3.74,0,0,0-2-.65c-.79,0-1.3.41-1.3,1v0c0,.64.83.89,1.74,1.17s2.17.72,2.17,1.93v0c0,1.28-1.06,2-2.41,2a4.68,4.68,0,0,1-2.8-1"/><path class="cls-1" d="M65.72,133.38V129.3h-.94v-.89h.94v-2h1v2h2.14v.89H66.73v3.95a1,1,0,0,0,1.13,1.13,2.11,2.11,0,0,0,1-.24V135a2.43,2.43,0,0,1-1.21.29,1.72,1.72,0,0,1-1.91-1.91"/><path class="cls-1" d="M70.14,133.21v0c0-1.43,1.18-2.19,2.89-2.19a7.19,7.19,0,0,1,2.08.29v-.24c0-1.21-.75-1.84-2-1.84a4.7,4.7,0,0,0-2,.5l-.3-.83a5.61,5.61,0,0,1,2.46-.56,2.94,2.94,0,0,1,2.18.75,2.64,2.64,0,0,1,.7,2v4.13h-1v-1a3,3,0,0,1-2.45,1.17,2.28,2.28,0,0,1-2.52-2.11m5-.52V132a7.23,7.23,0,0,0-2-.28c-1.26,0-2,.55-2,1.4v0c0,.85.78,1.35,1.7,1.35a2,2,0,0,0,2.26-1.83"/><rect class="cls-1" x="78.31" y="125.63" width="1.01" height="9.54"/><path class="cls-1" d="M81.24,131.81v0a3.33,3.33,0,0,1,3.24-3.52c2,0,3.16,1.59,3.16,3.57a1.77,1.77,0,0,1,0,.33H82.26a2.36,2.36,0,0,0,2.38,2.28,2.77,2.77,0,0,0,2.13-.95l.63.56a3.48,3.48,0,0,1-2.78,1.27,3.36,3.36,0,0,1-3.38-3.52m5.38-.39a2.23,2.23,0,0,0-2.16-2.3,2.33,2.33,0,0,0-2.2,2.3Z"/><path class="cls-1" d="M92.81,133.21v0c0-1.43,1.18-2.19,2.89-2.19a7.13,7.13,0,0,1,2.08.29v-.24c0-1.21-.74-1.84-2-1.84a4.63,4.63,0,0,0-2,.5l-.3-.83a5.53,5.53,0,0,1,2.45-.56,3,3,0,0,1,2.19.75,2.64,2.64,0,0,1,.69,2v4.13h-1v-1a2.94,2.94,0,0,1-2.44,1.17,2.28,2.28,0,0,1-2.53-2.11m5-.52V132a7.29,7.29,0,0,0-2-.28c-1.27,0-2,.55-2,1.4v0c0,.85.79,1.35,1.7,1.35a2,2,0,0,0,2.27-1.83"/><path class="cls-1" d="M105.17,133.38V129.3h-.94v-.89h.94v-2h1v2h2.14v.89h-2.14v3.95a1,1,0,0,0,1.14,1.13,2.14,2.14,0,0,0,1-.24V135a2.47,2.47,0,0,1-1.22.29,1.73,1.73,0,0,1-1.91-1.91"/><path class="cls-1" d="M110,132.61v-4.2h1v4a1.8,1.8,0,0,0,1.86,2,2,2,0,0,0,2-2.12v-3.87h1v6.76h-1V134a2.58,2.58,0,0,1-2.31,1.32,2.47,2.47,0,0,1-2.59-2.71"/><path class="cls-1" d="M122.08,128.41h1v1.36a3,3,0,0,1,2.59-1.5,3.3,3.3,0,0,1,3.23,3.5v0a3.31,3.31,0,0,1-3.23,3.52,3,3,0,0,1-2.59-1.44v3.39h-1Zm5.79,3.4v0a2.43,2.43,0,0,0-2.38-2.62,2.52,2.52,0,0,0-2.44,2.6v0a2.51,2.51,0,0,0,2.44,2.61,2.38,2.38,0,0,0,2.38-2.6"/><path class="cls-1" d="M130.25,133.21v0c0-1.43,1.18-2.19,2.89-2.19a7.13,7.13,0,0,1,2.08.29v-.24c0-1.21-.74-1.84-2-1.84a4.63,4.63,0,0,0-2.05.5l-.3-.83a5.53,5.53,0,0,1,2.45-.56,3,3,0,0,1,2.19.75,2.64,2.64,0,0,1,.69,2v4.13h-1v-1a2.94,2.94,0,0,1-2.44,1.17,2.28,2.28,0,0,1-2.53-2.11m5-.52V132a7.29,7.29,0,0,0-2-.28c-1.27,0-2,.55-2,1.4v0c0,.85.79,1.35,1.7,1.35a2,2,0,0,0,2.27-1.83"/><path class="cls-1" d="M137.77,134.31l.51-.72a4,4,0,0,0,2.35.86c.81,0,1.39-.41,1.39-1.07v0c0-.68-.79-1-1.68-1.19-1.06-.3-2.24-.67-2.24-1.91v0a2,2,0,0,1,2.3-1.93,4.62,4.62,0,0,1,2.44.74l-.46.76a3.79,3.79,0,0,0-2-.65c-.8,0-1.31.41-1.31,1v0c0,.64.84.89,1.74,1.17s2.17.72,2.17,1.93v0c0,1.28-1.06,2-2.41,2a4.7,4.7,0,0,1-2.8-1"/><path class="cls-1" d="M144.88,125.82H146v1.12h-1.15Zm.06,2.59h1v6.76h-1Z"/><path class="cls-1" d="M147.87,131.83v0a3.53,3.53,0,0,1,7,0v0a3.51,3.51,0,0,1-3.55,3.53,3.47,3.47,0,0,1-3.5-3.5m6,0v0a2.56,2.56,0,0,0-2.52-2.64,2.5,2.5,0,0,0-2.47,2.61v0a2.54,2.54,0,0,0,2.5,2.63,2.5,2.5,0,0,0,2.49-2.6m-1.68-6.33,1,.48-1.49,1.41H151Z"/><path class="cls-1" d="M156.74,128.41h1v1.18a2.57,2.57,0,0,1,2.32-1.32,2.47,2.47,0,0,1,2.59,2.71v4.19h-1v-3.95a1.8,1.8,0,0,0-1.87-2,2,2,0,0,0-2,2.12v3.87h-1Z"/><path class="cls-1" d="M14,115c-2.3,0-4.59-.08-6.87-.22a47.75,47.75,0,0,1-7.12-1V73.09a58.42,58.42,0,0,1,6.36-.82Q9.81,72,12.78,72a44.09,44.09,0,0,1,7.36.57,17.63,17.63,0,0,1,5.79,2,10.33,10.33,0,0,1,3.78,3.67,10.68,10.68,0,0,1,1.37,5.6q0,5-4.85,7.93c2.66,1,4.48,2.39,5.45,4.12a11.87,11.87,0,0,1,1.46,5.88q0,6.6-4.82,9.93T14,115M9.21,89h4.6c2.91,0,5-.38,6.24-1.12a3.89,3.89,0,0,0,1.88-3.61A3.71,3.71,0,0,0,20,80.66a12.4,12.4,0,0,0-5.69-1l-2.61,0c-.93,0-1.76.07-2.48.15Zm0,7.21V107c.68.08,1.43.14,2.24.18s1.7.06,2.66.06A16.36,16.36,0,0,0,21,106a4.49,4.49,0,0,0,2.61-4.48,4.39,4.39,0,0,0-2.19-4.15,12.73,12.73,0,0,0-6.24-1.24Z"/><path class="cls-1" d="M35,98.77a19.43,19.43,0,0,1,1.31-7.42,15.64,15.64,0,0,1,3.42-5.3,14.34,14.34,0,0,1,4.87-3.21,15.24,15.24,0,0,1,5.67-1.09q6.78,0,10.72,4.15c2.62,2.77,3.94,6.83,3.94,12.21,0,.52,0,1.1-.06,1.72s-.08,1.18-.12,1.67H44.22a6,6,0,0,0,2.61,4.42A10.44,10.44,0,0,0,53,107.55a26.29,26.29,0,0,0,4.88-.45A18.44,18.44,0,0,0,61.79,106L63,113.31a13.25,13.25,0,0,1-1.94.73,26.15,26.15,0,0,1-2.69.63c-1,.18-2,.34-3.18.46a32.41,32.41,0,0,1-3.4.18A20.27,20.27,0,0,1,44.31,114,14.51,14.51,0,0,1,39,110.55,13.88,13.88,0,0,1,36,105.31a20.94,20.94,0,0,1-1-6.54m21.2-3.45a9.3,9.3,0,0,0-.39-2.24,5.41,5.41,0,0,0-1-1.94A5.3,5.3,0,0,0,53,89.75a5.6,5.6,0,0,0-2.63-.55,6.14,6.14,0,0,0-2.61.51,5.42,5.42,0,0,0-1.81,1.37,5.88,5.88,0,0,0-1.12,2,12,12,0,0,0-.58,2.27Z"/><path class="cls-1" d="M67.91,74.66l9-1.45V82.6H87.78v7.51H76.93v11.21a9,9,0,0,0,1,4.54c.67,1.13,2,1.69,4,1.69a17.42,17.42,0,0,0,3-.27,14.85,14.85,0,0,0,2.82-.76l1.27,7a24.38,24.38,0,0,1-3.64,1.15,20.75,20.75,0,0,1-4.9.49,16.24,16.24,0,0,1-6.12-1,9.64,9.64,0,0,1-3.88-2.79,10.28,10.28,0,0,1-2-4.33,25.79,25.79,0,0,1-.57-5.63Z"/><path class="cls-1" d="M105.89,72q9.39,0,14.42,3.3t5,10.81q0,7.58-5.09,10.93t-14.53,3.37h-3v14H93.29V73.09a52,52,0,0,1,6.54-.85q3.45-.24,6.06-.24m.6,8c-.68,0-1.36,0-2,.06l-1.72.12V92.35h3q4.91,0,7.39-1.33t2.48-5a5.91,5.91,0,0,0-.64-2.91,4.94,4.94,0,0,0-1.81-1.85,8.49,8.49,0,0,0-2.88-1,24,24,0,0,0-3.76-.27"/><path class="cls-1" d="M140.78,115.07a23,23,0,0,1-6.39-.85,9.5,9.5,0,0,1-3.88-2.21,7.38,7.38,0,0,1-1.94-3.46,18.73,18.73,0,0,1-.51-4.57V68.91l9-1.46v34.71a11.06,11.06,0,0,0,.19,2.18,3.39,3.39,0,0,0,2.18,2.73,8.13,8.13,0,0,0,2.6.54Z"/><path class="cls-1" d="M157.44,81.75a20.79,20.79,0,0,1,6.66.91,10.27,10.27,0,0,1,4.27,2.6,9.56,9.56,0,0,1,2.27,4.12,20.09,20.09,0,0,1,.67,5.39v18.78c-1.29.28-3.09.62-5.39,1a52.17,52.17,0,0,1-8.36.58,26.64,26.64,0,0,1-5.6-.55,12.14,12.14,0,0,1-4.34-1.79,8,8,0,0,1-2.78-3.24,11.12,11.12,0,0,1-1-4.9A9.28,9.28,0,0,1,145,99.92a8.71,8.71,0,0,1,3-3.09,13.57,13.57,0,0,1,4.3-1.66,23.64,23.64,0,0,1,5-.52,28.86,28.86,0,0,1,3.12.15,13.92,13.92,0,0,1,2.21.4v-.85a5,5,0,0,0-1.4-3.7q-1.4-1.4-4.84-1.39a31.24,31.24,0,0,0-4.55.33,20.33,20.33,0,0,0-3.87.94l-1.15-7.27c.52-.16,1.18-.33,2-.51s1.64-.34,2.57-.49,1.91-.26,2.94-.36,2.07-.15,3.12-.15m.72,26.41q1.34,0,2.55-.06a18,18,0,0,0,1.94-.18v-6.85c-.37-.08-.91-.16-1.64-.24a18.24,18.24,0,0,0-2-.12,18,18,0,0,0-2.39.15,6.06,6.06,0,0,0-2,.58,3.32,3.32,0,0,0-1.33,1.15,3.21,3.21,0,0,0-.49,1.81,3.09,3.09,0,0,0,1.43,2.94,7.8,7.8,0,0,0,3.9.82"/><path class="cls-1" d="M205.41,82.6q-2.73,9.21-5.7,17.26t-6.5,15.63a35,35,0,0,1-2.55,4.63,14,14,0,0,1-2.79,3.15,9.77,9.77,0,0,1-3.43,1.82,15.62,15.62,0,0,1-4.46.58,18.35,18.35,0,0,1-3.91-.4,16.38,16.38,0,0,1-2.94-.88l1.57-7.2a15.52,15.52,0,0,0,2.49.66,14,14,0,0,0,2.3.18,5,5,0,0,0,3.73-1.3,10.7,10.7,0,0,0,2.21-3.6q-3.09-6.06-6.18-13.6a170.2,170.2,0,0,1-5.82-16.93H183c.41,1.57.88,3.28,1.43,5.12s1.13,3.69,1.73,5.57,1.23,3.7,1.86,5.48,1.23,3.39,1.79,4.85c.53-1.46,1.08-3.07,1.65-4.85s1.12-3.6,1.67-5.48,1.07-3.74,1.58-5.57,1-3.55,1.37-5.12Z"/><path class="cls-2" d="M91.05,9.42c-1.1-.1-2.2-.18-3.28-.25h0l-.64,0-.47,0h-.35a84.89,84.89,0,0,0,5.55,11.59c19.86-.3,35.72,1.21,35.8,5,0,2.22-5.28,4.31-13.74,5.83l-.21.35c10.22-1.18,17-3.91,17.34-7.62.54-6.23-17.37-12.87-40-14.83"/><path class="cls-3" d="M82.64,2.47c1.72-1.13,5.82,1.71,11,7.2l.61.06c-6-7.21-11.53-11-14.67-9.36C74.06,3.24,78,21.93,88.4,42.12c.38.75.77,1.48,1.17,2.21h0l.82,1.49.09.18h0c.09.16.18.32.26.48A110,110,0,0,0,97.3,35.13C86.56,18.62,79.48,4.56,82.64,2.47"/><path class="cls-4" d="M105.69,23.46C97.51,41.84,89.32,55.84,85.81,54.29c-2.1-.93-1.65-7,.77-15.83l-.17-.34c-3.52,10.23-4,17.94-.73,19.86,5.42,3.12,19-10.31,30.35-30,.68-1.19,1.34-2.38,2-3.56-3.42-.47-7.61-.79-12.32-1"/><path class="cls-1" d="M27.73,126h1l4.17,9.22H31.76l-1.08-2.42h-5l-1.08,2.42H23.56Zm2.55,5.86-2.08-4.65-2.09,4.65Z"/></svg>