<?xml version="1.0" encoding="utf-8"?>
<!-- Generator: Adobe Illustrator 24.2.0, SVG Export Plug-In . SVG Version: 6.00 Build 0)  -->
<svg version="1.1" id="Capa_1" xmlns="http://www.w3.org/2000/svg" xmlns:xlink="http://www.w3.org/1999/xlink" x="0px" y="0px"
	 viewBox="0 0 357.46 154.16" style="enable-background:new 0 0 357.46 154.16;" xml:space="preserve">
<style type="text/css">
	.st0{fill:#ffffff;}
	.st1{fill:#ffffff;}
</style>
<path class="st0" d="M118.03,74.34c-17.28,0-33.57,0.05-49.85-0.09c-1.4-0.01-2.93-1.17-4.16-2.11c-3.31-2.55-6.31-2.56-9.25,0.56
	c-2.65,2.82-2.61,5.57,0.06,8.3c2.94,3.01,6.95,3.34,9.5-0.13c1.87-2.56,3.86-2.53,6.31-2.53c18.83,0.01,37.65,0,56.48,0.02
	c1.38,0,2.76,0.17,4.61,0.3c-2.6,4.34-4.85,8.17-7.17,11.96c-4.25,6.95-11.25,8.02-17.77,2.9c-2.96-2.32-6.18-2.3-9.02,0.3
	c-2.61,2.38-2.77,5.29-0.68,8.02c2.2,2.87,6.12,3.99,8.31,1.73c4.1-4.2,8.76-3.21,13.39-3.15c2.99,0.04,4.81-0.76,6.32-3.5
	c2.96-5.36,6.2-10.59,9.69-15.62c1.01-1.45,3.26-2.73,5.01-2.84c5.77-0.35,11.58-0.13,17.38-0.13c0.24-0.61,0.48-1.21,0.73-1.82
	c-1.34-0.73-2.67-2.04-4.03-2.08c-6.66-0.22-13.38-0.65-19.97,0.04c-7.79,0.82-13.24-1.2-16.55-8.71c-1.51-3.43-3.94-6.56-6.43-9.4
	c-1.3-1.48-3.63-2.8-5.55-2.89c-7.15-0.33-14.33,0.03-21.48-0.2c-1.93-0.06-4.17-0.85-5.66-2.06c-3.39-2.74-6.47-2.58-9.24,0.41
	c-2.45,2.65-2.39,5.94,0.1,8.48c2.81,2.86,6,2.85,9.29,0.16c1.39-1.14,3.4-2.05,5.16-2.11c6.82-0.24,13.66-0.23,20.48,0
	c1.54,0.05,3.56,0.96,4.46,2.16C111.69,64.52,114.48,69.02,118.03,74.34z M243.69,110.31c5.49,0,11.05,0.49,16.46-0.16
	c4.28-0.51,8.82-1.7,12.48-3.88c7.31-4.34,10.26-14.8,7.47-23.4c-2.43-7.52-6.74-10.03-17.22-10.04c-5.99,0-11.99,0.16-17.98-0.08
	c-5.93-0.23-9.12-3.67-9.28-9.45c-0.27-9.54,5.91-15.91,15.58-15.96c9.99-0.05,19.98,0.09,29.96-0.11c1.53-0.03,3.03-1.42,4.55-2.19
	c-1.49-0.89-2.97-2.52-4.48-2.56c-10.65-0.22-21.31-0.23-31.96-0.08c-7.55,0.1-16.35,6.72-18.19,14.02
	c-3.06,12.15,3.13,22.2,15.32,21.09c6.44-0.59,12.98-0.08,19.47-0.11c4.47-0.02,7.89,1.77,9.14,6.14
	c3.71,12.97-4.28,22.05-14.92,21.84c-11.48-0.23-22.97-0.13-34.46,0.05c-1.37,0.02-2.72,1.47-4.07,2.25
	c1.38,0.87,2.73,2.42,4.14,2.49C231.69,110.47,237.69,110.31,243.69,110.31z M94.67,34.29c-0.07-3.49-3.32-6.59-6.78-6.46
	c-3.46,0.12-6.31,3.27-6.21,6.87c0.1,3.7,3.18,6.82,6.51,6.6C91.38,41.08,94.73,37.46,94.67,34.29z M110.67,34.26
	c-0.07,4.01,2.45,6.96,6.01,7.03c3.15,0.06,6.78-3.35,6.97-6.55c0.2-3.43-2.89-6.77-6.39-6.91
	C113.71,27.69,110.74,30.58,110.67,34.26z M116.09,111.23c-3.47,0.83-6.24,2.32-6.39,6.38c-0.13,3.35,3.3,6.78,6.6,6.7
	c3.4-0.08,6.57-3.49,6.36-6.92C122.42,113.29,119.59,111.94,116.09,111.23z M51.09,55.13c-1.43-1.25-3.34-4.23-5.38-4.33
	c-1.91-0.09-5.25,2.66-5.56,4.56c-0.28,1.71,2.3,4.94,4.31,5.73C47.65,62.35,49.97,60.15,51.09,55.13z M24.6,75.66
	c0.01,0.79,0.02,1.58,0.03,2.36c2.08,1.41,4.39,4.16,6.19,3.86c2.04-0.34,4.73-3.22,5.12-5.36c0.54-2.98-2.07-5.6-5.3-4.97
	C28.44,71.98,26.6,74.23,24.6,75.66z M94.51,119.32c0.03-0.79,0.06-1.57,0.09-2.36c-1.95-1.53-3.71-3.94-5.88-4.39
	c-3.41-0.71-5.7,2.02-5.82,5.2c-0.12,3.22,2.01,5.97,5.52,5.39C90.6,122.8,92.49,120.66,94.51,119.32z M75.27,145.22
	c1.46-2.03,3.9-3.96,4.13-6.12c0.32-3.02-2.15-5.12-5.47-5.04c-3.22,0.08-5.37,1.58-5.25,5.2
	C68.79,142.74,70.75,144.28,75.27,145.22z M61.08,40.24c1.51-1.97,4.38-4.1,4.16-5.85c-0.23-1.88-3.12-4.28-5.29-4.89
	c-3.17-0.89-5.25,1.24-5.26,4.74C54.68,37.7,56.6,39.27,61.08,40.24z M72.65,19.45c0.76-0.01,1.52-0.01,2.28-0.02
	c1.48-2,3.93-3.88,4.19-6.02c0.35-2.94-1.86-5.14-5.31-5.05c-3.31,0.08-5.71,1.77-5.06,5.1C69.16,15.63,71.29,17.47,72.65,19.45z
	 M44.59,92.25c-1.57,1.95-4.49,4-4.35,5.81c0.15,1.88,3,4.43,5.14,5.06c3.1,0.9,5.21-1.17,5.34-4.7
	C50.84,94.89,48.94,93.38,44.59,92.25z M73.45,104.27c4.24-1.36,6.32-2.77,6.22-6.27c-0.11-3.6-2.52-5.47-5.47-4.62
	c-2.14,0.62-4.93,3.21-5.1,5.13C68.93,100.29,71.87,102.34,73.45,104.27z M45.78,8c-2.21,2.57-4.7,4.25-4.53,5.57
	c0.23,1.73,2.34,3.89,4.1,4.46c0.93,0.3,3.91-2.3,4-3.71C49.46,12.62,47.47,10.79,45.78,8z M30.99,40.36c2.18-2.81,4.31-4.37,4.37-6
	c0.05-1.29-2.64-3.88-3.8-3.71c-1.7,0.24-3.89,2.2-4.39,3.87C26.83,35.65,29.04,37.54,30.99,40.36z M23.51,55.4
	c-2.89-1.85-4.85-4.02-6.03-3.65c-1.66,0.51-2.73,2.9-4.06,4.49c1.48,1.21,2.94,3.35,4.44,3.38C19.33,59.64,20.84,57.52,23.51,55.4z
	 M17.06,92.46c-1.98,2.66-4.31,4.54-3.98,5.64c0.5,1.69,2.69,3.68,4.41,3.94c1.17,0.18,3.9-2.41,3.86-3.71
	C21.31,96.7,19.15,95.13,17.06,92.46z M60.6,112.18c-2.02,2.31-4.39,3.84-4.36,5.32c0.03,1.53,2.41,3,3.75,4.5
	c1.55-1.41,3.96-2.62,4.38-4.31C64.68,116.46,62.35,114.58,60.6,112.18z M16.08,76.91c-2.54-1.98-4.26-4.33-5.62-4.14
	c-1.74,0.25-3.17,2.56-4.74,3.98c1.47,1.33,2.86,3.58,4.44,3.72C11.71,80.62,13.45,78.61,16.08,76.91z M31.62,123.69
	c1.94-2.65,4.19-4.42,3.93-5.7c-0.34-1.71-2.62-3.03-4.07-4.51c-1.28,1.46-3.46,2.85-3.6,4.41
	C27.76,119.36,29.78,121.02,31.62,123.69z M46.17,133.25c-2.22,2.84-4.34,4.38-4.23,5.72c0.13,1.54,2.24,2.91,3.5,4.35
	c1.41-1.27,3.63-2.35,3.98-3.87C49.72,138.15,47.9,136.35,46.17,133.25z"/>
<path class="st0" d="M105.67,7.35c1,1.44,2.95,2.99,2.81,4.31c-0.27,2.48-1.15,6.07-2.88,6.91c-2.06,0.99-5.74,0.3-7.88-1.02
	c-2.55-1.58-2.71-4.75-0.72-7.42c0.76-1.02,1.77-1.85,2.67-2.77C101.67,7.35,103.67,7.35,105.67,7.35z"/>
<path class="st0" d="M99.67,145.35c-4.38-3.87-5.07-6.69-2.46-9.98c2.2-2.76,6.43-3.23,9.29-1.01c3.33,2.57,3.05,6.27-0.83,11
	C103.67,145.35,101.67,145.35,99.67,145.35z"/>
<path class="st0" d="M163.35,102.54c-2.33,11.74-4.37,22.43-6.66,33.06c-0.29,1.35-1.92,2.41-2.94,3.6
	c-0.66-1.49-2.1-3.12-1.87-4.45c2.21-12.66,4.69-25.27,7.11-37.89c2.21-11.5,4.55-22.97,6.64-34.5
	c1.98-10.98,11.38-19.02,22.58-19.02c5.49,0,10.99,0,16.48,0c14.09,0,19.37,6.31,16.85,19.86c-1.75,9.41-3.36,18.85-4.87,28.3
	c-1.4,8.81-9.52,19.07-20.34,18.14c-2.13-0.18-4.32,0.06-6.47,0.27C180.29,110.85,170.87,111.27,163.35,102.54z M186.58,106.34
	c0.07-0.42,0.14-0.84,0.21-1.25c2.99,0,5.99,0.14,8.98-0.03c8.51-0.49,13.72-4.42,15.4-12.8c2.23-11.16,3.94-22.43,5.47-33.71
	c0.93-6.86-2.4-10.19-9.38-10.25c-6.66-0.05-13.31-0.02-19.97-0.01c-7.47,0.01-15.23,6.44-16.55,13.73
	c-1.74,9.56-3.45,19.13-5.22,28.69c-1.16,6.24-0.26,9.72,5.42,12.14C175.75,104.92,181.33,105.25,186.58,106.34z"/>
<path class="st0" d="M295.01,79.35c-0.88,6.18-1.77,11.2-2.27,16.26c-0.56,5.64,3.81,9.64,10.61,9.71
	c11.15,0.11,22.31-0.08,33.46,0.14c1.76,0.03,3.49,1.56,5.23,2.4c-1.73,0.83-3.44,2.34-5.18,2.38c-10.65,0.22-21.31,0.12-31.96,0.11
	c-12.26-0.02-18.78-6.8-17.06-18.76c1.57-10.93,3.7-21.81,6.32-32.54c1.84-7.52,9.51-15.89,20.14-15.42
	c7.31,0.32,14.65,0.02,21.97,0.07c9.21,0.07,14.97,5.98,14.4,15c-0.35,5.6-1.28,11.16-1.69,16.75c-0.24,3.31-1.87,3.97-4.88,3.95
	C327.95,79.28,311.81,79.35,295.01,79.35z M296.23,74.53c16.24,0,32.14,0,48.28,0c0.49-5.4,0.83-10.16,1.39-14.9
	c0.82-6.95-2.56-11.13-9.57-11.25c-7.49-0.13-15.02-0.49-22.46,0.17c-3.48,0.31-7.39,2.06-10.02,4.39
	C297.39,58.64,297.85,67.11,296.23,74.53z"/>
<path class="st0" d="M118.03,74.34c-3.56-5.32-6.35-9.82-9.53-14.03c-0.9-1.19-2.92-2.11-4.46-2.16c-6.82-0.23-13.66-0.24-20.48,0
	c-1.76,0.06-3.77,0.98-5.16,2.11c-3.29,2.69-6.48,2.7-9.29-0.16c-2.49-2.53-2.55-5.82-0.1-8.48c2.76-2.99,5.85-3.15,9.24-0.41
	c1.49,1.21,3.73,2,5.66,2.06c7.16,0.23,14.33-0.13,21.48,0.2c1.92,0.09,4.24,1.4,5.55,2.89c2.5,2.84,4.92,5.97,6.43,9.4
	c3.31,7.51,8.76,9.53,16.55,8.71c6.59-0.69,13.32-0.26,19.97-0.04c1.36,0.04,2.69,1.36,4.03,2.08c-0.24,0.61-0.48,1.21-0.73,1.82
	c-5.8,0-11.6-0.22-17.38,0.13c-1.76,0.11-4,1.39-5.01,2.84c-3.5,5.02-6.73,10.26-9.69,15.62c-1.51,2.73-3.33,3.54-6.32,3.5
	c-4.62-0.06-9.29-1.05-13.39,3.15c-2.2,2.25-6.12,1.14-8.31-1.73c-2.09-2.73-1.93-5.64,0.68-8.02c2.84-2.6,6.06-2.62,9.02-0.3
	c6.53,5.11,13.52,4.05,17.77-2.9c2.32-3.79,4.57-7.62,7.17-11.96c-1.84-0.12-3.23-0.29-4.61-0.3c-18.83-0.02-37.65-0.01-56.48-0.02
	c-2.45,0-4.44-0.03-6.31,2.53c-2.55,3.47-6.56,3.15-9.5,0.13c-2.67-2.74-2.71-5.49-0.06-8.3c2.93-3.12,5.93-3.11,9.25-0.56
	c1.23,0.94,2.76,2.1,4.16,2.11C84.47,74.4,100.75,74.34,118.03,74.34z"/>
<path class="st0" d="M243.69,110.31c-5.99,0-11.99,0.16-17.97-0.12c-1.42-0.07-2.76-1.62-4.14-2.49c1.36-0.79,2.7-2.23,4.07-2.25
	c11.48-0.18,22.98-0.29,34.46-0.05c10.63,0.22,18.63-8.86,14.92-21.84c-1.25-4.37-4.67-6.17-9.14-6.14
	c-6.49,0.04-13.03-0.47-19.47,0.11c-12.19,1.11-18.38-8.94-15.32-21.09c1.84-7.3,10.63-13.92,18.19-14.02
	c10.65-0.15,21.31-0.14,31.96,0.08c1.51,0.03,2.99,1.66,4.48,2.56c-1.52,0.76-3.02,2.16-4.55,2.19c-9.98,0.2-19.97,0.06-29.96,0.11
	c-9.67,0.05-15.84,6.42-15.58,15.96c0.16,5.77,3.35,9.22,9.28,9.45c5.98,0.23,11.98,0.07,17.98,0.08
	c10.48,0.01,14.79,2.52,17.22,10.04c2.78,8.6-0.16,19.06-7.47,23.4c-3.66,2.17-8.2,3.36-12.48,3.88
	C254.73,110.8,249.18,110.31,243.69,110.31z"/>
<path class="st0" d="M94.67,34.29c0.06,3.18-3.28,6.8-6.48,7.01c-3.34,0.22-6.42-2.9-6.51-6.6c-0.09-3.6,2.75-6.75,6.21-6.87
	C91.35,27.7,94.6,30.8,94.67,34.29z"/>
<path class="st0" d="M110.67,34.26c0.06-3.68,3.03-6.57,6.59-6.43c3.51,0.14,6.6,3.48,6.39,6.91c-0.19,3.2-3.82,6.61-6.97,6.55
	C113.13,41.22,110.6,38.27,110.67,34.26z"/>
<path class="st0" d="M116.09,111.23c3.51,0.71,6.33,2.05,6.58,6.16c0.2,3.42-2.97,6.84-6.36,6.92c-3.3,0.08-6.73-3.35-6.6-6.7
	C109.85,113.55,112.61,112.07,116.09,111.23z"/>
<path class="st0" d="M51.09,55.13c-1.12,5.02-3.44,7.22-6.62,5.97c-2.01-0.79-4.6-4.02-4.31-5.73c0.31-1.9,3.66-4.65,5.56-4.56
	C47.75,50.9,49.66,53.88,51.09,55.13z"/>
<path class="st0" d="M24.6,75.66c2-1.43,3.85-3.68,6.05-4.11c3.23-0.63,5.84,2,5.3,4.97c-0.39,2.14-3.08,5.02-5.12,5.36
	c-1.8,0.3-4.11-2.46-6.19-3.86C24.62,77.24,24.61,76.45,24.6,75.66z"/>
<path class="st0" d="M94.51,119.32c-2.02,1.34-3.9,3.47-6.09,3.84c-3.52,0.58-5.64-2.16-5.52-5.39c0.12-3.18,2.4-5.91,5.82-5.2
	c2.17,0.45,3.93,2.86,5.88,4.39C94.56,117.75,94.54,118.54,94.51,119.32z"/>
<path class="st0" d="M75.27,145.22c-4.52-0.94-6.48-2.47-6.59-5.96c-0.12-3.61,2.03-5.12,5.25-5.2c3.32-0.08,5.78,2.02,5.47,5.04
	C79.18,141.26,76.73,143.19,75.27,145.22z"/>
<path class="st0" d="M61.08,40.24c-4.48-0.97-6.39-2.54-6.38-6c0.01-3.49,2.09-5.63,5.26-4.74c2.17,0.61,5.05,3,5.29,4.89
	C65.45,36.14,62.59,38.27,61.08,40.24z"/>
<path class="st1" d="M72.65,19.45c-1.36-1.99-3.49-3.82-3.91-5.99c-0.64-3.33,1.75-5.02,5.06-5.1c3.45-0.09,5.66,2.11,5.31,5.05
	c-0.26,2.14-2.71,4.02-4.19,6.02C74.17,19.44,73.41,19.45,72.65,19.45z"/>
<path class="st0" d="M44.59,92.25c4.36,1.13,6.26,2.64,6.13,6.17c-0.13,3.53-2.24,5.6-5.34,4.7c-2.14-0.63-4.99-3.18-5.14-5.06
	C40.09,96.25,43.01,94.2,44.59,92.25z"/>
<path class="st0" d="M73.45,104.27c-1.57-1.93-4.51-3.98-4.35-5.75c0.17-1.92,2.97-4.52,5.1-5.13c2.96-0.85,5.37,1.01,5.47,4.62
	C79.77,101.5,77.69,102.91,73.45,104.27z"/>
<path class="st1" d="M45.78,8c1.7,2.78,3.68,4.62,3.57,6.31c-0.09,1.42-3.08,4.02-4,3.71c-1.76-0.57-3.87-2.73-4.1-4.46
	C41.07,12.25,43.57,10.57,45.78,8z"/>
<path class="st0" d="M30.99,40.36c-1.95-2.82-4.16-4.71-3.82-5.84c0.49-1.67,2.69-3.63,4.39-3.87c1.17-0.16,3.85,2.43,3.8,3.71
	C35.3,35.99,33.17,37.55,30.99,40.36z"/>
<path class="st0" d="M23.51,55.4c-2.67,2.12-4.17,4.24-5.65,4.22c-1.5-0.03-2.96-2.16-4.44-3.38c1.32-1.59,2.4-3.98,4.06-4.49
	C18.66,51.39,20.62,53.55,23.51,55.4z"/>
<path class="st0" d="M17.06,92.46c2.09,2.67,4.25,4.24,4.29,5.87c0.04,1.29-2.69,3.88-3.86,3.71c-1.72-0.26-3.91-2.25-4.41-3.94
	C12.75,97,15.08,95.12,17.06,92.46z"/>
<path class="st0" d="M60.6,112.18c1.74,2.4,4.07,4.28,3.77,5.51c-0.42,1.69-2.82,2.9-4.38,4.31c-1.35-1.5-3.72-2.98-3.75-4.5
	C56.21,116.02,58.58,114.49,60.6,112.18z"/>
<path class="st0" d="M16.08,76.91c-2.64,1.7-4.38,3.71-5.91,3.56c-1.58-0.15-2.97-2.4-4.44-3.72c1.57-1.42,3-3.72,4.74-3.98
	C11.82,72.58,13.55,74.93,16.08,76.91z"/>
<path class="st0" d="M31.62,123.69c-1.84-2.68-3.87-4.33-3.74-5.8c0.14-1.56,2.31-2.95,3.6-4.41c1.45,1.49,3.73,2.81,4.07,4.51
	C35.81,119.27,33.56,121.05,31.62,123.69z"/>
<path class="st0" d="M46.17,133.25c1.73,3.1,3.55,4.9,3.24,6.21c-0.35,1.51-2.57,2.6-3.98,3.87c-1.25-1.44-3.37-2.82-3.5-4.35
	C41.83,137.63,43.95,136.1,46.17,133.25z"/>
</svg>
